<?xml version="1.0" encoding="utf-8"?>
<!-- Generator: Adobe Illustrator 16.0.0, SVG Export Plug-In . SVG Version: 6.00 Build 0)  -->
<!DOCTYPE svg PUBLIC "-//W3C//DTD SVG 1.1//EN" "http://www.w3.org/Graphics/SVG/1.1/DTD/svg11.dtd">
<svg version="1.1" id="图层_1" xmlns="http://www.w3.org/2000/svg" xmlns:xlink="http://www.w3.org/1999/xlink" x="0px" y="0px"
	 width="200px" height="200px" viewBox="0 0 200 200" enable-background="new 0 0 200 200" xml:space="preserve">
<g>
	<g>
		<path fill="#4DB7CD" d="M148.581,127.539H37.539c-16.115,0-29.221-12.896-29.221-28.753c0-15.78,12.983-28.633,29.001-28.753
			c2.25-27.671,25.642-49.294,54.071-49.294c19.236,0,36.774,9.889,46.555,26.03c3.47-0.916,7.045-1.38,10.636-1.383
			c23.007,0,41.737,18.43,41.737,41.081C190.318,109.115,171.59,127.539,148.581,127.539L148.581,127.539z M37.539,78.246
			c-11.511,0-20.875,9.216-20.875,20.541c0,11.33,9.364,20.54,20.875,20.54h111.042c18.412,0,33.392-14.742,33.392-32.86
			c0-18.122-14.979-32.868-33.392-32.868c-3.788,0-7.563,0.658-11.222,1.949l-3.449,1.219l-1.678-3.208
			c-7.914-15.175-23.563-24.607-40.843-24.607c-25.324,0-45.92,20.276-45.92,45.188v4.764l-4.768-0.393
			C39.659,78.359,38.616,78.246,37.539,78.246z"/>
	</g>
	<path fill="#4DB7CD" d="M148.52,177.546h-0.004l-28.811-0.011c-2.82-0.002-5.109-1.286-5.107-4.106
		c0.002-2.822,2.291-4.104,5.111-4.104h0.002l28.811,0.018c2.819-0.003,5.106,1.281,5.108,4.1c0,0.002,0,0.003,0,0.005
		c-0.002,2.818-2.288,4.101-5.106,4.099C148.521,177.546,148.521,177.546,148.52,177.546L148.52,177.546z"/>
	<path fill="#4DB7CD" d="M99.777,177.546h-0.002l-50.806-0.011c-2.821,0.001-5.108-1.284-5.109-4.104c0-0.002,0-0.002,0-0.002
		c0.002-2.82,2.29-4.104,5.109-4.104h0.004l50.807,0.018c2.817-0.003,5.104,1.279,5.106,4.098c0,0.002,0,0.005,0,0.007
		c0,2.816-2.284,4.1-5.101,4.099C99.783,177.546,99.781,177.546,99.777,177.546z"/>
	<path fill="#4DB7CD" d="M160.4,156.082h-0.002l-66.202-0.012c-2.819-0.001-5.104-1.286-5.103-4.106
		c0-2.818,2.286-4.104,5.105-4.103H94.2l66.202,0.017c2.818,0,5.102,1.285,5.102,4.104
		C165.504,154.799,163.219,156.083,160.4,156.082L160.4,156.082z"/>
	<path fill="#4DB7CD" d="M75.056,156.082h-0.004l-36.561-0.012c-2.819,0.038-5.136-1.216-5.175-4.034
		c-0.039-2.82,2.215-4.137,5.035-4.176c0.048,0,0.095,0,0.143,0.001h0.002l36.562,0.017c2.818,0,5.102,1.285,5.101,4.104
		C80.159,154.799,77.874,156.083,75.056,156.082z"/>
</g>
</svg>
