<?xml version="1.0" encoding="utf-8"?>
<!-- Generator: Adobe Illustrator 16.0.0, SVG Export Plug-In . SVG Version: 6.00 Build 0)  -->
<!DOCTYPE svg PUBLIC "-//W3C//DTD SVG 1.1//EN" "http://www.w3.org/Graphics/SVG/1.1/DTD/svg11.dtd">
<svg version="1.1" id="图层_1" xmlns="http://www.w3.org/2000/svg" xmlns:xlink="http://www.w3.org/1999/xlink" x="0px" y="0px"
	 width="200px" height="200px" viewBox="0 0 200 200" enable-background="new 0 0 200 200" xml:space="preserve">
<path fill="#4DB7CD" d="M152.318,135.785H34.385c-17.113,0-31.033-13.924-31.033-31.033c0-17.036,13.794-30.903,30.799-31.033
	c2.394-29.864,27.237-53.202,57.426-53.202c20.435,0,39.057,10.673,49.448,28.09c3.684-0.985,7.48-1.486,11.293-1.489
	c24.44,0,44.328,19.888,44.328,44.333C196.646,115.893,176.76,135.785,152.318,135.785z M34.385,82.583
	c-12.223,0-22.169,9.946-22.169,22.169c0,12.223,9.946,22.169,22.169,22.169h117.934c19.555,0,35.465-15.911,35.465-35.469
	c0-19.559-15.91-35.469-35.465-35.469c-4.021,0-8.033,0.71-11.92,2.104l-3.662,1.315l-1.778-3.462
	c-8.41-16.382-25.03-26.557-43.381-26.557c-26.891,0-48.77,21.878-48.77,48.77v5.137l-5.064-0.42
	C36.64,82.704,35.532,82.583,34.385,82.583z"/>
<path fill="#4DB7CD" d="M57.891,171.492c-1.371-0.001-2.48-1.103-2.479-2.462c0.001-0.873,0.469-1.681,1.229-2.121l15.007-8.656
	c1.183-0.681,2.699-0.286,3.387,0.887c0.002,0.002,0.003,0.003,0.004,0.006c0.688,1.173,0.287,2.676-0.896,3.357
	c-0.001,0-0.002,0.001-0.002,0.002l-15.004,8.655C58.758,171.378,58.329,171.493,57.891,171.492z"/>
<path fill="#4DB7CD" d="M73.02,171.272c-0.397,0-0.806-0.096-1.181-0.3l-15.26-8.209c-1.204-0.647-1.65-2.14-0.997-3.331
	c0-0.002,0.001-0.002,0.001-0.004c0.655-1.19,2.158-1.632,3.363-0.988l15.261,8.21c1.204,0.65,1.647,2.146,0.99,3.34
	C74.763,170.78,73.929,171.271,73.02,171.272z"/>
<path fill="#4DB7CD" d="M65.39,175.739h-0.003c-1.37,0-2.48-1.159-2.48-2.517l0.011-16.913c0-1.354,1.108-2.451,2.475-2.451
	c0.002,0,0.004,0,0.006,0h0.002c1.368,0,2.479,1.069,2.479,2.423l-0.011,16.96C67.869,174.601,66.758,175.739,65.39,175.739z"/>
<path fill="#4DB7CD" d="M92.499,171.492c-1.371-0.001-2.48-1.103-2.479-2.462c0.001-0.873,0.469-1.681,1.229-2.121l15.007-8.656
	c1.184-0.681,2.699-0.286,3.387,0.887c0.002,0.002,0.004,0.003,0.004,0.006c0.688,1.173,0.287,2.676-0.895,3.357
	c-0.002,0-0.002,0.001-0.002,0.002l-15.005,8.655C93.366,171.378,92.937,171.493,92.499,171.492z"/>
<path fill="#4DB7CD" d="M107.627,171.272c-0.396,0-0.805-0.096-1.18-0.3l-15.26-8.209c-1.204-0.647-1.65-2.14-0.997-3.331
	c0-0.002,0.001-0.002,0.001-0.004c0.655-1.19,2.158-1.632,3.363-0.988l15.26,8.21c1.205,0.65,1.648,2.146,0.99,3.34
	C109.371,170.78,108.537,171.271,107.627,171.272z"/>
<path fill="#4DB7CD" d="M99.998,175.739h-0.003c-1.37,0-2.48-1.159-2.48-2.517l0.011-16.913c0-1.354,1.108-2.451,2.475-2.451
	c0.002,0,0.004,0,0.006,0h0.002c1.368,0,2.479,1.069,2.479,2.423l-0.012,16.96C102.477,174.601,101.365,175.739,99.998,175.739z"/>
<path fill="#4DB7CD" d="M125.877,171.492c-1.37-0.001-2.48-1.103-2.479-2.462c0-0.873,0.469-1.681,1.229-2.121l15.008-8.656
	c1.183-0.681,2.699-0.286,3.387,0.887c0.002,0.002,0.003,0.003,0.004,0.006c0.688,1.173,0.287,2.676-0.896,3.357
	c-0.001,0-0.002,0.001-0.002,0.002l-15.005,8.655C126.744,171.378,126.314,171.493,125.877,171.492z"/>
<path fill="#4DB7CD" d="M141.006,171.272c-0.397,0-0.806-0.096-1.181-0.3l-15.26-8.209c-1.204-0.647-1.649-2.14-0.997-3.331
	c0-0.002,0.001-0.002,0.002-0.004c0.654-1.19,2.158-1.632,3.362-0.988l15.261,8.21c1.204,0.65,1.647,2.146,0.99,3.34
	C142.749,170.78,141.915,171.271,141.006,171.272z"/>
<path fill="#4DB7CD" d="M133.376,175.739h-0.003c-1.37,0-2.48-1.159-2.48-2.517l0.011-16.913c0-1.354,1.108-2.451,2.475-2.451
	c0.002,0,0.004,0,0.006,0h0.002c1.368,0,2.479,1.069,2.479,2.423l-0.011,16.96C135.855,174.601,134.744,175.739,133.376,175.739z"/>
</svg>
