<?xml version="1.0" encoding="utf-8"?>
<!-- Generator: Adobe Illustrator 16.0.0, SVG Export Plug-In . SVG Version: 6.00 Build 0)  -->
<!DOCTYPE svg PUBLIC "-//W3C//DTD SVG 1.1//EN" "http://www.w3.org/Graphics/SVG/1.1/DTD/svg11.dtd">
<svg version="1.1" id="图层_1" xmlns="http://www.w3.org/2000/svg" xmlns:xlink="http://www.w3.org/1999/xlink" x="0px" y="0px"
	 width="200px" height="200px" viewBox="0 0 200 200" enable-background="new 0 0 200 200" xml:space="preserve">
<g>
	<path fill="#4DB7CD" d="M152.318,137.785H34.385c-17.113,0-31.033-13.924-31.033-31.033c0-17.036,13.794-30.903,30.799-31.033
		c2.394-29.864,27.237-53.202,57.426-53.202c20.435,0,39.057,10.673,49.448,28.09c3.684-0.985,7.479-1.486,11.293-1.489
		c24.439,0,44.328,19.888,44.328,44.333C196.646,117.893,176.76,137.785,152.318,137.785z M34.385,84.583
		c-12.223,0-22.169,9.946-22.169,22.169c0,12.223,9.946,22.169,22.169,22.169h117.934c19.556,0,35.466-15.911,35.466-35.469
		c0-19.559-15.91-35.469-35.466-35.469c-4.021,0-8.032,0.71-11.92,2.104l-3.662,1.315l-1.777-3.462
		c-8.41-16.382-25.029-26.557-43.381-26.557c-26.891,0-48.77,21.878-48.77,48.77v5.137l-5.064-0.42
		C36.64,84.704,35.532,84.583,34.385,84.583z"/>
	<g>
		<path fill="#4DB7CD" d="M86.653,171.049H65.465c-1.881,0-3.366-1.484-3.366-3.365c0-1.883,1.485-3.367,3.366-3.367h21.188
			c1.881,0,3.367,1.484,3.367,3.367C90.02,169.564,88.535,171.049,86.653,171.049L86.653,171.049z"/>
		<path fill="#4DB7CD" d="M81.406,180.257c-1.188,0-2.277-0.595-2.97-1.683l-10.594-18.416c-0.891-1.584-0.396-3.664,1.287-4.654
			c1.584-0.891,3.663-0.396,4.653,1.287l10.495,18.316c0.891,1.584,0.396,3.664-1.287,4.654
			C82.495,180.059,81.901,180.257,81.406,180.257L81.406,180.257z"/>
		<path fill="#4DB7CD" d="M70.713,180.257c-0.594,0-1.188-0.099-1.683-0.495c-1.584-0.891-2.178-2.971-1.287-4.652l10.594-18.416
			c0.891-1.584,2.971-2.18,4.654-1.287c1.584,0.892,2.178,2.97,1.287,4.652l-10.594,18.416
			C73.089,179.662,71.901,180.257,70.713,180.257L70.713,180.257z"/>
		<path fill="#4DB7CD" d="M132.078,171.049h-21.188c-1.882,0-3.365-1.484-3.365-3.365c0-1.883,1.483-3.367,3.365-3.367h21.188
			c1.883,0,3.367,1.484,3.367,3.367C135.445,169.564,133.861,171.049,132.078,171.049L132.078,171.049z"/>
		<path fill="#4DB7CD" d="M126.732,180.257c-1.188,0-2.277-0.595-2.971-1.683l-10.595-18.416c-0.892-1.584-0.396-3.664,1.287-4.654
			c1.584-0.891,3.664-0.396,4.653,1.287l10.595,18.416c0.891,1.584,0.396,3.664-1.287,4.654
			C127.92,180.059,127.326,180.257,126.732,180.257L126.732,180.257z"/>
		<path fill="#4DB7CD" d="M116.139,180.257c-0.594,0-1.188-0.099-1.684-0.495c-1.584-0.891-2.178-2.971-1.287-4.652l10.594-18.416
			c0.891-1.584,2.971-2.18,4.654-1.287c1.584,0.892,2.178,2.97,1.287,4.652l-10.693,18.517
			C118.416,179.662,117.326,180.257,116.139,180.257L116.139,180.257z"/>
	</g>
</g>
</svg>
