<?xml version="1.0" encoding="utf-8"?>
<!-- Generator: Adobe Illustrator 16.0.0, SVG Export Plug-In . SVG Version: 6.00 Build 0)  -->
<!DOCTYPE svg PUBLIC "-//W3C//DTD SVG 1.1//EN" "http://www.w3.org/Graphics/SVG/1.1/DTD/svg11.dtd">
<svg version="1.1" id="图层_1" xmlns="http://www.w3.org/2000/svg" xmlns:xlink="http://www.w3.org/1999/xlink" x="0px" y="0px"
	 width="200px" height="200px" viewBox="0 0 200 200" enable-background="new 0 0 200 200" xml:space="preserve">
<path fill="#4DB7CD" d="M152.318,137.785H34.385c-17.113,0-31.033-13.924-31.033-31.033c0-17.036,13.794-30.903,30.799-31.033
	c2.394-29.864,27.237-53.202,57.426-53.202c20.435,0,39.057,10.673,49.448,28.09c3.684-0.985,7.48-1.486,11.293-1.489
	c24.44,0,44.328,19.888,44.328,44.333C196.646,117.893,176.76,137.785,152.318,137.785z M34.385,84.583
	c-12.223,0-22.169,9.946-22.169,22.169c0,12.223,9.946,22.169,22.169,22.169h117.934c19.555,0,35.465-15.911,35.465-35.469
	c0-19.559-15.91-35.469-35.465-35.469c-4.021,0-8.033,0.71-11.92,2.104l-3.662,1.315l-1.778-3.462
	c-8.41-16.382-25.03-26.557-43.381-26.557c-26.891,0-48.77,21.878-48.77,48.77v5.137l-5.064-0.42
	C36.64,84.704,35.532,84.583,34.385,84.583z"/>
<path fill="#4DB7CD" d="M63.159,156.3l-13.616,13.617c-1.73,1.73-1.73,4.536,0,6.267s4.537,1.73,6.267,0l13.616-13.617
	c1.731-1.73,1.731-4.535,0-6.267C67.695,154.569,64.89,154.569,63.159,156.3z M131.941,156.3c-1.73-1.73-4.535-1.731-6.266-0.002
	c0,0.001-0.001,0.001-0.002,0.002l-13.615,13.617c-1.73,1.73-1.73,4.536,0,6.267s4.535,1.73,6.267,0l13.616-13.617
	c1.73-1.729,1.732-4.532,0.003-6.264C131.943,156.303,131.941,156.301,131.941,156.3z"/>
</svg>
