<?xml version="1.0" encoding="utf-8"?>
<!-- Generator: Adobe Illustrator 16.0.0, SVG Export Plug-In . SVG Version: 6.00 Build 0)  -->
<!DOCTYPE svg PUBLIC "-//W3C//DTD SVG 1.1//EN" "http://www.w3.org/Graphics/SVG/1.1/DTD/svg11.dtd">
<svg version="1.1" id="图层_1" xmlns="http://www.w3.org/2000/svg" xmlns:xlink="http://www.w3.org/1999/xlink" x="0px" y="0px"
	 width="200px" height="200px" viewBox="0 0 200 200" enable-background="new 0 0 200 200" xml:space="preserve">
<g>
	<path fill="#4DB7CD" d="M61.047,162.275l-13.76,13.76c-1.749,1.746-1.75,4.58-0.003,6.33c0.001,0,0.002,0.002,0.003,0.003
		c0.875,0.876,2.021,1.313,3.166,1.313s2.293-0.438,3.166-1.313l13.762-13.761c1.722-1.775,1.678-4.611-0.099-6.334
		C65.545,160.59,62.784,160.59,61.047,162.275L61.047,162.275z M115.438,162.275l-13.765,13.76c-1.749,1.746-1.75,4.58-0.003,6.33
		c0.001,0,0.002,0.002,0.003,0.003c1.747,1.75,4.583,1.753,6.333,0.005c0.002-0.002,0.004-0.004,0.006-0.005l13.76-13.761
		c1.722-1.775,1.678-4.611-0.1-6.334C119.936,160.59,117.174,160.591,115.438,162.275L115.438,162.275z"/>
	<path fill="#4DB7CD" d="M49.716,131.175c-1.747-1.747-4.58-1.749-6.329-0.003c0,0.002-0.001,0.002-0.002,0.003l-13.763,13.763
		c-1.744,1.75-1.744,4.582,0,6.332c0.839,0.842,1.979,1.314,3.168,1.313c1.188,0.003,2.329-0.47,3.166-1.313l13.76-13.76
		c1.749-1.744,1.753-4.576,0.01-6.324C49.723,131.182,49.719,131.178,49.716,131.175z M104.107,131.175
		c-1.75-1.749-4.585-1.749-6.334,0l-13.76,13.763c-1.749,1.744-1.753,4.576-0.009,6.324c0.003,0.002,0.006,0.006,0.009,0.008
		c0.872,0.877,2.021,1.313,3.166,1.313s2.291-0.437,3.166-1.313l13.762-13.76C105.855,135.76,105.855,132.924,104.107,131.175z
		 M158.491,131.175c-1.749-1.749-4.583-1.749-6.331-0.001c-0.001,0.001-0.001,0.001-0.001,0.001l-13.763,13.763
		c-1.748,1.752-1.746,4.588,0.006,6.336c0.84,0.838,1.977,1.31,3.162,1.311c1.188,0.001,2.328-0.473,3.166-1.313l13.761-13.76
		c1.749-1.746,1.752-4.578,0.007-6.328C158.496,131.18,158.493,131.178,158.491,131.175z"/>
	<path fill="#4DB7CD" d="M153.729,124.068H34.544c-17.297,0-31.363-14.066-31.363-31.36c0-17.217,13.938-31.24,31.129-31.362
		C36.727,31.156,61.832,7.58,92.343,7.58c20.654,0,39.472,10.788,49.968,28.389c3.726-0.996,7.564-1.502,11.42-1.506
		c24.69,0,44.795,20.094,44.795,44.807C198.525,103.967,178.421,124.068,153.729,124.068z M34.544,70.304
		c-12.352,0-22.406,10.051-22.406,22.404c0,12.351,10.055,22.403,22.406,22.403H153.73c19.754,0,35.836-16.082,35.836-35.842
		c0-19.77-16.082-35.848-35.836-35.848c-4.067,0-8.119,0.708-12.045,2.124l-3.703,1.322l-1.801-3.49
		c-8.498-16.56-25.291-26.839-43.84-26.839c-27.179,0-49.284,22.106-49.284,49.286v5.205l-5.138-0.438
		C36.611,70.39,35.542,70.304,34.544,70.304L34.544,70.304z"/>
</g>
</svg>
