<?xml version="1.0" encoding="utf-8"?>
<!-- Generator: Adobe Illustrator 16.0.0, SVG Export Plug-In . SVG Version: 6.00 Build 0)  -->
<!DOCTYPE svg PUBLIC "-//W3C//DTD SVG 1.1//EN" "http://www.w3.org/Graphics/SVG/1.1/DTD/svg11.dtd">
<svg version="1.1" id="图层_1" xmlns="http://www.w3.org/2000/svg" xmlns:xlink="http://www.w3.org/1999/xlink" x="0px" y="0px"
	 width="200px" height="200px" viewBox="0 0 200 200" enable-background="new 0 0 200 200" xml:space="preserve">
<g>
	<path fill="#4DB7CD" d="M159.936,67.041 163.977,55.556 170.686,53.654 163.977,50.916 159.936,40.343 155.895,50.916 
		149.186,53.654 155.895,55.556 159.936,67.041"/>
	<path fill="#4DB7CD" d="M180.824,82.634 183.109,75.864 187,74.723 183.109,73.049 180.824,66.736 178.536,73.049 
		174.648,74.723 178.536,75.864 180.824,82.634"/>
	<path fill="#4DB7CD" d="M173.305,90.394c-20.51,0-37.13-16.583-37.13-37.043c0-5.249,1.067-10.269,3.05-14.756
		c-0.763,0-1.523,0.228-2.287,0.228c0-0.076,0-0.076,0.076-0.152c-1.144,0.076-2.287,0.38-3.431,0.532
		c-0.84,0.152-1.754,0.152-2.592,0.304v0.076c-17.46,3.651-31.487,16.583-36.442,33.544c2.287,1.141,4.498,2.434,6.633,3.956
		c3.432-14.148,14.18-25.33,28.133-29.437c-0.229,1.901-0.457,3.727-0.457,5.705c0,24.492,19.896,44.42,44.522,44.42
		c2.363,0,4.649-0.229,6.938-0.608c-3.965,14.909-16.086,26.394-31.411,29.437c0.763,2.28,1.372,4.715,1.755,7.148
		c19.212-3.954,34.076-19.318,37.584-38.563h0.077c0.151-1.065,0.151-2.207,0.305-3.271c0.151-1.141,0.381-2.206,0.381-3.346h-0.075
		c0-0.609,0.151-1.141,0.151-1.674C184.281,89.175,178.945,90.394,173.305,90.394L173.305,90.394z"/>
	<g>
		<path fill="#4DB7CD" d="M114.63,153.229H33.203c-11.817,0-21.428-9.459-21.428-21.085c0-11.571,9.521-20.998,21.267-21.085
			c1.65-20.293,18.804-36.148,39.651-36.148c14.106,0,26.967,7.252,34.139,19.089c2.545-0.673,5.167-1.013,7.799-1.013
			c16.873,0,30.606,13.512,30.606,30.124C145.236,139.719,131.503,153.229,114.63,153.229L114.63,153.229z M33.203,117.08
			c-8.441,0-15.308,6.758-15.308,15.063c0,8.309,6.866,15.063,15.308,15.063h81.427c13.502,0,24.487-10.812,24.487-24.098
			c0-13.288-10.985-24.102-24.487-24.102c-2.776,0-5.545,0.482-8.228,1.43l-2.529,0.894l-1.23-2.353
			c-5.804-11.128-17.28-18.046-29.951-18.046c-18.571,0-33.673,14.87-33.673,33.138v3.492l-3.497-0.287
			C34.757,117.165,33.993,117.08,33.203,117.08z"/>
	</g>
</g>
</svg>
