<?xml version="1.0" encoding="utf-8"?>
<!-- Generator: Adobe Illustrator 16.0.0, SVG Export Plug-In . SVG Version: 6.00 Build 0)  -->
<!DOCTYPE svg PUBLIC "-//W3C//DTD SVG 1.1//EN" "http://www.w3.org/Graphics/SVG/1.1/DTD/svg11.dtd">
<svg version="1.1" id="图层_1" xmlns="http://www.w3.org/2000/svg" xmlns:xlink="http://www.w3.org/1999/xlink" x="0px" y="0px"
	 width="200px" height="200px" viewBox="0 0 200 200" enable-background="new 0 0 200 200" xml:space="preserve">
<g>
	<path fill="#4DB7CD" d="M149.263,154.4H38.221C22.105,154.4,9,141.504,9,125.647C9,109.867,21.982,97.014,38,96.895
		C40.25,69.223,63.643,47.6,92.072,47.6c19.236,0,36.774,9.889,46.555,26.03c3.47-0.916,7.045-1.38,10.636-1.383
		c23.007,0,41.737,18.43,41.737,41.081C191,135.977,172.271,154.4,149.263,154.4L149.263,154.4z M38.221,105.107
		c-11.511,0-20.875,9.216-20.875,20.541c0,11.33,9.364,20.54,20.875,20.54h111.042c18.412,0,33.392-14.742,33.392-32.86
		c0-18.121-14.979-32.867-33.392-32.867c-3.788,0-7.563,0.657-11.222,1.948l-3.449,1.22l-1.678-3.209
		C125,65.246,109.351,55.813,92.071,55.813c-25.324,0-45.92,20.276-45.92,45.188v4.764l-4.768-0.393
		C40.341,105.221,39.298,105.107,38.221,105.107z"/>
</g>
</svg>
