<?xml version="1.0" encoding="utf-8"?>
<!-- Generator: Adobe Illustrator 16.0.0, SVG Export Plug-In . SVG Version: 6.00 Build 0)  -->
<!DOCTYPE svg PUBLIC "-//W3C//DTD SVG 1.1//EN" "http://www.w3.org/Graphics/SVG/1.1/DTD/svg11.dtd">
<svg version="1.1" id="图层_1" xmlns="http://www.w3.org/2000/svg" xmlns:xlink="http://www.w3.org/1999/xlink" x="0px" y="0px"
	 width="200px" height="200px" viewBox="0 0 200 200" enable-background="new 0 0 200 200" xml:space="preserve">
<g>
	<path fill="#4DB7CD" d="M100,45.121c2.509,0,4.182-1.673,4.182-4.182V15.848c0-2.509-1.673-4.182-4.182-4.182
		c-2.509,0-4.182,1.673-4.182,4.182v25.091C95.818,43.448,97.491,45.121,100,45.121z"/>
	<path fill="#4DB7CD" d="M125.091,154.213h-8.364v-20.91c0-2.509-1.672-4.181-4.181-4.181H87.455c-2.509,0-4.182,1.672-4.182,4.181
		v20.91h-8.363c-2.509,0-4.182,1.672-4.182,4.181c0,1.255,0.418,2.092,1.254,2.927l25.091,25.091
		c0.836,0.837,1.673,1.255,2.928,1.255c1.255,0,2.092-0.418,2.927-1.255l25.091-25.091c0.837-0.835,1.255-1.672,1.255-2.927
		C129.272,155.885,127.6,154.213,125.091,154.213z"/>
	<path fill="#FFFFFF" d="M100,179.637l-17.062-17.062h2.509c2.509,0,4.182-1.672,4.182-4.182v-22.917h20.742v22.917
		c0,2.51,1.673,4.182,4.182,4.182h2.509L100,179.637z"/>
	<path fill="#4DB7CD" d="M147.255,62.267l17.564-17.564c1.672-1.673,1.672-4.182,0-5.854c-1.675-1.673-4.184-1.673-5.855,0
		L141.4,56.412c-1.673,1.673-1.673,4.182,0,5.854C143.072,63.938,145.581,63.939,147.255,62.267z"/>
	<path fill="#4DB7CD" d="M187.818,103.666h-37.637c0-27.6-22.582-50.182-50.182-50.182c-27.6,0-50.182,22.582-50.182,50.182H12.182
		c-2.509,0-4.182,1.673-4.182,4.182s1.673,4.184,4.182,4.184h175.637c2.509,0,4.182-1.675,4.182-4.184
		S190.327,103.666,187.818,103.666z"/>
	<path fill="#FFFFFF" d="M58.182,103.666c0-23,18.818-41.818,41.818-41.818c22.999,0,41.817,18.818,41.817,41.818H58.182z"/>
	<path fill="#4DB7CD" d="M52.746,62.267c1.673,1.673,4.182,1.673,5.854,0c1.672-1.673,1.673-4.182,0-5.854L41.036,38.43
		c-1.673-1.673-4.182-1.673-5.854,0c-1.673,1.673-1.673,4.182,0,5.854L52.746,62.267z"/>
</g>
</svg>
