<?xml version="1.0" encoding="utf-8"?>
<!-- Generator: Adobe Illustrator 16.0.0, SVG Export Plug-In . SVG Version: 6.00 Build 0)  -->
<!DOCTYPE svg PUBLIC "-//W3C//DTD SVG 1.1//EN" "http://www.w3.org/Graphics/SVG/1.1/DTD/svg11.dtd">
<svg version="1.1" id="图层_1" xmlns="http://www.w3.org/2000/svg" xmlns:xlink="http://www.w3.org/1999/xlink" x="0px" y="0px"
	 width="200px" height="200px" viewBox="0 0 200 200" enable-background="new 0 0 200 200" xml:space="preserve">
<g>
	<path fill="#4DB7CD" d="M149.262,129.002H38.219c-16.113,0-29.22-13.046-29.22-29.076c0-15.962,12.988-28.955,29-29.076
		c2.254-27.981,25.646-49.848,54.071-49.848c19.24,0,36.774,10,46.559,26.319c3.469-0.923,7.042-1.392,10.634-1.395
		c23.011,0,41.737,18.633,41.737,41.538C190.999,110.364,172.274,129.002,149.262,129.002z M38.219,79.155
		c-11.508,0-20.874,9.318-20.874,20.771c0,11.451,9.366,20.771,20.874,20.771h111.043c18.413,0,33.393-14.907,33.393-33.232
		c0-18.326-14.979-33.233-33.393-33.233c-3.786,0-7.563,0.665-11.225,1.971l-3.448,1.232l-1.673-3.243
		c-7.919-15.349-23.566-24.883-40.846-24.883c-25.32,0-45.92,20.499-45.92,45.695v4.813l-4.768-0.394
		C40.342,79.268,39.299,79.155,38.219,79.155z"/>
	<path fill="#4DB7CD" d="M104.937,137.5l-1.659,9.66h9.222l-20.075,32.539l3.779-25.687l-6.704,0.005l3.136-16.518"/>
</g>
</svg>
