<?xml version="1.0" encoding="utf-8"?>
<!-- Generator: Adobe Illustrator 16.0.0, SVG Export Plug-In . SVG Version: 6.00 Build 0)  -->
<!DOCTYPE svg PUBLIC "-//W3C//DTD SVG 1.1//EN" "http://www.w3.org/Graphics/SVG/1.1/DTD/svg11.dtd">
<svg version="1.1" id="图层_1" xmlns="http://www.w3.org/2000/svg" xmlns:xlink="http://www.w3.org/1999/xlink" x="0px" y="0px"
	 width="200px" height="200px" viewBox="0 0 200 200" enable-background="new 0 0 200 200" xml:space="preserve">
<g>
	<path fill="#4DB7CD" d="M178.529,73.138c-3.647-11.215-9.334-21.457-16.901-30.44c-7.836-9.304-17.353-16.841-28.282-22.401
		c-10.861-5.54-22.495-8.793-34.579-9.668L90.086,10l5.615,6.638c21.622,25.562,11.845,69.914,2.661,92.09
		c-11.403,27.534-37.767,45.325-67.166,45.325c-1.822,0-3.675-0.068-5.506-0.203l-8.69-0.64l5.621,6.648
		c7.822,9.251,17.291,16.728,28.136,22.216C63.686,188.661,77.554,192,91.974,192c16.518,0,32.749-4.493,46.938-12.994
		c14.59-8.74,26.4-21.396,34.157-36.595c5.572-10.918,8.835-22.601,9.699-34.726C183.604,95.976,182.177,84.352,178.529,73.138
		L178.529,73.138z M166.539,139.089c-14.352,28.123-42.923,45.593-74.565,45.593c-13.252,0-25.999-3.069-37.896-9.13
		c-7.428-3.759-14.15-8.528-20.066-14.229c15.075-0.522,29.527-5.244,41.957-13.732c12.98-8.864,23.066-21.334,29.167-36.064
		c6.359-15.354,10.323-33.231,10.875-49.047c0.34-9.722-0.565-18.734-2.689-26.788c-1.624-6.16-3.97-11.775-7-16.779
		c8.214,1.412,16.154,4.059,23.692,7.904c19.892,10.118,34.646,27.372,41.545,48.583
		C178.458,96.607,176.676,119.227,166.539,139.089z"/>
	<path fill="#4DB7CD" d="M79.804,64.864l-5.649,33.794l-5.648-33.794l-22.573-5.64l22.573-5.64l5.648-16.897l5.649,16.897
		l22.573,5.64L79.804,64.864z M46.33,100.512l-3.063,18.321l-3.063-18.321l-12.238-3.059l12.238-3.057l3.063-9.161l3.063,9.161
		l12.238,3.057L46.33,100.512z"/>
</g>
</svg>
