<?xml version="1.0" encoding="utf-8"?>
<!-- Generator: Adobe Illustrator 16.0.0, SVG Export Plug-In . SVG Version: 6.00 Build 0)  -->
<!DOCTYPE svg PUBLIC "-//W3C//DTD SVG 1.1//EN" "http://www.w3.org/Graphics/SVG/1.1/DTD/svg11.dtd">
<svg version="1.1" id="图层_1" xmlns="http://www.w3.org/2000/svg" xmlns:xlink="http://www.w3.org/1999/xlink" x="0px" y="0px"
	 width="200px" height="200px" viewBox="0 0 200 200" enable-background="new 0 0 200 200" xml:space="preserve">
<path fill="#4DB7CD" d="M166.909,86.266c0-1.256,0-2.094,0-3.35c0-27.638-22.582-50.25-50.183-50.25
	c-19.236,0-35.963,10.887-44.327,26.8c-3.346-0.837-6.691-1.675-10.037-1.675c-16.309,0-29.272,12.981-29.272,29.313
	c0,2.094,0.418,4.188,0.836,6.281C18.872,98.41,8,112.229,8,128.979c0,20.938,16.727,37.688,37.636,37.688h104.545
	c23,0,41.818-18.844,41.818-41.875C192,107.622,181.546,92.966,166.909,86.266z M150.182,158.292H45.636
	c-16.309,0-29.273-12.982-29.273-29.313c0-12.563,7.946-23.869,20.073-27.638l7.109-2.512l-1.673-7.538
	c-0.418-1.256-0.418-2.931-0.418-4.188c0-11.725,9.2-20.938,20.909-20.938c2.509,0,4.601,0.419,7.109,1.256l6.691,2.512l3.346-6.281
	c7.109-13.819,21.328-22.613,37.217-22.613c23.002,0,41.819,18.844,41.819,41.876c0,0.837,0,1.256,0,2.093v0.838l-0.419,5.862
	l5.438,2.513c12.126,5.444,20.073,17.588,20.073,30.568C183.638,143.217,168.583,158.292,150.182,158.292z"/>
</svg>
