<?xml version="1.0" encoding="utf-8"?>
<!-- Generator: Adobe Illustrator 16.0.0, SVG Export Plug-In . SVG Version: 6.00 Build 0)  -->
<!DOCTYPE svg PUBLIC "-//W3C//DTD SVG 1.1//EN" "http://www.w3.org/Graphics/SVG/1.1/DTD/svg11.dtd">
<svg version="1.1" id="图层_1" xmlns="http://www.w3.org/2000/svg" xmlns:xlink="http://www.w3.org/1999/xlink" x="0px" y="0px"
	 width="200px" height="200px" viewBox="0 0 200 200" enable-background="new 0 0 200 200" xml:space="preserve">
<g>
	<path fill="#4DB7CD" d="M137.623,129.926H49.807c-9.089,0-16.507-7.48-16.507-16.645c0-9.165,7.418-16.644,16.507-16.644
		c0.869,0,1.672,0.068,2.472,0.201l3.743,0.337v-3.84c0-20.149,16.306-36.591,36.289-36.591c13.634,0,26.064,7.614,32.279,19.945
		l1.339,2.628l2.74-1.011c2.871-1.078,5.88-1.55,8.889-1.55c14.566,0,26.396,11.927,26.396,26.616
		C164.021,117.931,152.191,129.926,137.623,129.926 M101.065,48.995c0-11.792,6.283-22.507,16.174-28.302
		c-0.266,1.954-0.467,3.909-0.467,5.93c0,21.699,17.508,39.353,39.028,39.353c1.871,0,3.742-0.134,5.612-0.404
		c-1.936,3.37-4.544,6.334-7.55,8.828c-4.813-2.762-10.358-4.38-16.306-4.38c-2.807,0-5.616,0.404-8.422,1.146
		c-6.215-10.512-16.373-17.655-28.002-20.081C101.134,50.343,101.065,49.668,101.065,48.995 M159.41,78.375
		c5.012-4.448,8.755-10.108,10.959-16.577c0.401-1.213,0.136-2.561-0.801-3.437c-0.87-0.875-2.206-1.213-3.411-0.809
		c-3.406,1.146-6.883,1.753-10.426,1.753c-17.907,0-32.477-14.69-32.477-32.75c0-3.572,0.602-7.211,1.804-10.646
		c0.4-1.214,0.133-2.562-0.804-3.438c-0.868-0.876-2.206-1.213-3.409-0.809c-15.839,5.458-26.531,20.418-26.531,37.264
		c0,0.406,0.065,0.809,0.065,1.213c-0.735,0-1.404-0.134-2.138-0.134c-22.523,0-41.102,17.654-42.772,39.959
		c-12.628,0.136-22.92,10.513-22.92,23.316c0,12.87,10.358,23.313,23.124,23.313h87.75c18.178,0,33.014-14.891,33.014-33.287
		C170.638,93.401,166.293,84.507,159.41,78.375"/>
	<path fill="#4DB7CD" d="M65.713,173.59l-10.158,10.242c-1.27,1.282-1.27,3.436,0,4.718c0.668,0.674,1.471,0.943,2.339,0.943
		s1.671-0.339,2.339-0.943l10.159-10.244c1.268-1.277,1.268-3.366,0-4.716C69.121,172.31,67.049,172.31,65.713,173.59"/>
	<path fill="#4DB7CD" d="M59.631,150.208c-1.27-1.281-3.341-1.281-4.678,0l-10.158,10.243c-1.27,1.28-1.27,3.435,0,4.715
		c0.667,0.675,1.47,0.943,2.339,0.943s1.671-0.335,2.339-0.943l10.158-10.243C60.901,153.578,60.901,151.488,59.631,150.208"/>
	<path fill="#4DB7CD" d="M105.812,173.59l-10.158,10.242c-1.271,1.282-1.271,3.436,0,4.718c0.668,0.674,1.47,0.943,2.339,0.943
		s1.671-0.339,2.339-0.943l10.16-10.244c1.268-1.277,1.268-3.366,0-4.716C109.152,172.31,107.082,172.31,105.812,173.59"/>
	<path fill="#4DB7CD" d="M99.663,150.208c-1.27-1.281-3.408-1.281-4.678,0l-10.158,10.243c-1.27,1.28-1.27,3.435,0,4.715
		c0.668,0.675,1.471,0.943,2.339,0.943c0.868,0,1.671-0.335,2.338-0.943l10.157-10.243
		C100.933,153.578,100.933,151.488,99.663,150.208"/>
	<path fill="#4DB7CD" d="M135.085,150.208l-10.159,10.243c-1.27,1.28-1.27,3.435,0,4.715c0.669,0.675,1.471,0.943,2.339,0.943
		s1.67-0.335,2.337-0.943l10.16-10.243c1.271-1.278,1.271-3.368,0-4.715C138.426,148.927,136.353,148.927,135.085,150.208"/>
</g>
</svg>
