<?xml version="1.0" encoding="utf-8"?>
<!-- Generator: Adobe Illustrator 16.0.0, SVG Export Plug-In . SVG Version: 6.00 Build 0)  -->
<!DOCTYPE svg PUBLIC "-//W3C//DTD SVG 1.1//EN" "http://www.w3.org/Graphics/SVG/1.1/DTD/svg11.dtd">
<svg version="1.1" id="图层_1" xmlns="http://www.w3.org/2000/svg" xmlns:xlink="http://www.w3.org/1999/xlink" x="0px" y="0px"
	 width="200px" height="200px" viewBox="0 0 200 200" enable-background="new 0 0 200 200" xml:space="preserve">
<path fill="#4DB7CD" d="M137.201,77.386c-2.406,0-4.357-1.957-4.357-4.371c0-23.712-19.232-43.003-42.875-43.003
	c-23.641,0-42.875,19.291-42.875,43.003c0.001,2.414-1.949,4.371-4.355,4.372c-2.407,0.001-4.359-1.955-4.36-4.369
	c0-0.001,0-0.002,0-0.003c0-28.532,23.144-51.745,51.591-51.745c28.447,0,51.59,23.212,51.59,51.745
	C141.561,75.429,139.607,77.386,137.201,77.386z"/>
<path fill="#4DB7CD" d="M157.598,141.041H41.78c-19.901,0-36.091-16.238-36.091-36.199c0-19.959,16.19-36.198,36.091-36.198
	c2.407,0,4.358,1.957,4.358,4.371s-1.951,4.371-4.358,4.371l0,0c-15.095,0-27.375,12.317-27.375,27.458S26.686,132.3,41.78,132.3
	h115.818c15.094,0,27.377-12.315,27.377-27.456c0-15.14-12.283-27.458-27.377-27.458c-2.406,0-4.357-1.957-4.357-4.371
	s1.951-4.371,4.357-4.371c19.899,0,36.092,16.239,36.092,36.198C193.688,124.803,177.497,141.041,157.598,141.041L157.598,141.041z"
	/>
<path fill="#4DB7CD" d="M157.598,77.386h-20.887c-2.406,0-4.357-1.957-4.357-4.371s1.951-4.371,4.357-4.371h20.887
	c2.406,0,4.357,1.957,4.357,4.371S160.004,77.386,157.598,77.386z"/>
<path fill="#4DB7CD" d="M36.35,179.044c-2.406,0.002-4.359-1.954-4.36-4.368c-0.001-1.352,0.622-2.628,1.688-3.457l27.719-21.557
	c1.885-1.502,4.626-1.188,6.123,0.701c1.498,1.891,1.184,4.641-0.7,6.143c-0.027,0.021-0.055,0.043-0.082,0.064l-27.719,21.557
	C38.255,178.723,37.316,179.045,36.35,179.044z"/>
<path fill="#4DB7CD" d="M76.815,179.044c-2.407,0.002-4.359-1.954-4.361-4.368c-0.001-1.352,0.622-2.628,1.688-3.457l27.717-21.557
	c1.887-1.502,4.627-1.188,6.125,0.701c1.496,1.891,1.184,4.641-0.7,6.143c-0.027,0.021-0.056,0.043-0.083,0.064l-27.719,21.557
	C78.72,178.723,77.781,179.045,76.815,179.044z"/>
<path fill="#4DB7CD" d="M117.279,179.044c-2.404,0.002-4.357-1.954-4.359-4.368c0-1.352,0.623-2.628,1.688-3.457l27.719-21.557
	c1.886-1.502,4.625-1.188,6.123,0.701c1.496,1.891,1.184,4.641-0.699,6.143c-0.027,0.021-0.055,0.043-0.084,0.064l-27.719,21.557
	C119.188,178.723,118.248,179.045,117.279,179.044z"/>
</svg>
