<?xml version="1.0" encoding="utf-8"?>
<!-- Generator: Adobe Illustrator 16.0.0, SVG Export Plug-In . SVG Version: 6.00 Build 0)  -->
<!DOCTYPE svg PUBLIC "-//W3C//DTD SVG 1.1//EN" "http://www.w3.org/Graphics/SVG/1.1/DTD/svg11.dtd">
<svg version="1.1" id="图层_1" xmlns="http://www.w3.org/2000/svg" xmlns:xlink="http://www.w3.org/1999/xlink" x="0px" y="0px"
	 width="200px" height="200px" viewBox="0 0 200 200" enable-background="new 0 0 200 200" xml:space="preserve">
<g>
	<path fill="#4DB7CD" d="M43.913,147.693l-12.82,12.619c-1.629,1.603-1.63,4.199-0.002,5.805c0.783,0.771,1.846,1.205,2.954,1.203
		c1.067,0,2.135-0.4,2.95-1.202l12.82-12.616c1.63-1.604,1.63-4.202,0.001-5.807c0,0-0.001,0-0.001-0.002
		c-1.629-1.603-4.271-1.603-5.9,0C43.914,147.693,43.914,147.693,43.913,147.693z M155.322,147.693c-1.629-1.603-4.271-1.603-5.9,0
		c0,0,0,0-0.001,0L136.6,160.313c-1.629,1.604-1.629,4.201-0.002,5.806c0.782,0.771,1.846,1.204,2.953,1.202
		c1.068,0,2.135-0.399,2.951-1.201l12.82-12.616c1.63-1.604,1.631-4.2,0.002-5.806C155.324,147.695,155.322,147.695,155.322,147.693
		z M148.581,130.539H37.539c-16.115,0-29.221-12.896-29.221-28.753c0-15.78,12.983-28.633,29.001-28.753
		c2.25-27.671,25.642-49.294,54.071-49.294c19.236,0,36.774,9.889,46.555,26.03c3.47-0.916,7.045-1.38,10.636-1.383
		c23.007,0,41.737,18.43,41.737,41.081C190.318,112.115,171.59,130.539,148.581,130.539L148.581,130.539z M37.539,81.246
		c-11.511,0-20.875,9.216-20.875,20.541c0,11.33,9.364,20.54,20.875,20.54h111.042c18.412,0,33.392-14.742,33.392-32.86
		c0-18.122-14.979-32.868-33.392-32.868c-3.788,0-7.563,0.658-11.222,1.949l-3.449,1.219l-1.678-3.208
		c-7.914-15.175-23.563-24.607-40.843-24.607c-25.324,0-45.92,20.276-45.92,45.188v4.764l-4.768-0.393
		C39.659,81.359,38.616,81.246,37.539,81.246z"/>
	<path fill="#4DB7CD" d="M68.818,158.029c-0.003,3.348,2.708,6.064,6.055,6.066s6.063-2.709,6.067-6.056c0-0.003,0-0.007,0-0.011
		c0-3.348-2.715-6.061-6.062-6.061C71.531,151.971,68.818,154.684,68.818,158.029L68.818,158.029z"/>
	<path fill="#4DB7CD" d="M104.242,158.029c0,3.348,2.713,6.062,6.061,6.062s6.061-2.714,6.061-6.062s-2.713-6.061-6.061-6.061
		S104.242,154.684,104.242,158.029L104.242,158.029z"/>
</g>
</svg>
