<?xml version="1.0" encoding="utf-8"?>
<!-- Generator: Adobe Illustrator 16.0.0, SVG Export Plug-In . SVG Version: 6.00 Build 0)  -->
<!DOCTYPE svg PUBLIC "-//W3C//DTD SVG 1.1//EN" "http://www.w3.org/Graphics/SVG/1.1/DTD/svg11.dtd">
<svg version="1.1" id="图层_1" xmlns="http://www.w3.org/2000/svg" xmlns:xlink="http://www.w3.org/1999/xlink" x="0px" y="0px"
	 width="200px" height="200px" viewBox="0 0 200 200" enable-background="new 0 0 200 200" xml:space="preserve">
<g>
	<path fill="#4DB7CD" d="M45.913,147.693l-12.82,12.619c-1.629,1.603-1.63,4.199-0.002,5.805c0.783,0.771,1.846,1.205,2.954,1.203
		c1.067,0,2.135-0.4,2.95-1.202l12.82-12.616c1.63-1.604,1.63-4.202,0.001-5.807c0,0-0.001,0-0.001-0.002
		c-1.629-1.603-4.271-1.603-5.9,0C45.914,147.693,45.914,147.693,45.913,147.693z M155.322,147.693c-1.629-1.603-4.271-1.603-5.9,0
		c0,0,0,0-0.001,0L136.6,160.313c-1.629,1.604-1.629,4.201-0.002,5.806c0.782,0.771,1.846,1.204,2.953,1.202
		c1.068,0,2.135-0.399,2.951-1.201l12.82-12.616c1.63-1.604,1.631-4.2,0.002-5.806C155.324,147.695,155.322,147.695,155.322,147.693
		z M148.581,130.539H37.539c-16.115,0-29.221-12.896-29.221-28.753c0-15.78,12.983-28.633,29.001-28.753
		c2.25-27.671,25.642-49.294,54.071-49.294c19.236,0,36.774,9.889,46.555,26.03c3.47-0.916,7.045-1.38,10.636-1.383
		c23.007,0,41.737,18.43,41.737,41.081C190.318,112.115,171.59,130.539,148.581,130.539L148.581,130.539z M37.539,81.246
		c-11.511,0-20.875,9.216-20.875,20.541c0,11.33,9.364,20.54,20.875,20.54h111.042c18.412,0,33.392-14.742,33.392-32.86
		c0-18.122-14.979-32.868-33.392-32.868c-3.788,0-7.563,0.658-11.222,1.949l-3.449,1.219l-1.678-3.208
		c-7.914-15.175-23.563-24.607-40.843-24.607c-25.324,0-45.92,20.276-45.92,45.188v4.764l-4.768-0.393
		C39.659,81.359,38.616,81.246,37.539,81.246z M69.796,163.531c-1.365,0.003-2.473-1.084-2.476-2.428
		c-0.001-0.867,0.467-1.672,1.23-2.108l14.96-8.565c1.179-0.675,2.691-0.283,3.377,0.877c0.001,0.002,0.002,0.004,0.003,0.008
		c0.687,1.158,0.287,2.646-0.892,3.32c-0.001,0-0.001,0.002-0.002,0.002l-14.958,8.567
		C70.661,163.419,70.232,163.531,69.796,163.531z"/>
	<path fill="#4DB7CD" d="M84.828,163.271c-0.399,0-0.807-0.096-1.181-0.299l-15.261-8.209c-1.204-0.648-1.65-2.141-0.997-3.332
		c0-0.002,0.001-0.002,0.001-0.004c0.655-1.189,2.158-1.632,3.362-0.988l15.26,8.211c1.204,0.649,1.647,2.146,0.99,3.34
		C86.568,162.779,85.735,163.271,84.828,163.271z"/>
	<path fill="#4DB7CD" d="M77.195,167.738h-0.002c-1.37,0-2.479-1.158-2.479-2.516l0.011-16.914c0-1.354,1.108-2.451,2.474-2.451
		c0.002,0,0.003,0,0.005,0h0.002c1.37,0,2.479,1.07,2.479,2.424l-0.011,16.959C79.673,166.602,78.564,167.738,77.195,167.738z"/>
	<path fill="#4DB7CD" d="M100.891,163.492c-1.371-0.002-2.479-1.104-2.479-2.463c0.001-0.873,0.469-1.68,1.229-2.12l15.007-8.656
		c1.183-0.681,2.699-0.286,3.387,0.888c0.002,0.002,0.003,0.002,0.004,0.006c0.688,1.172,0.287,2.676-0.896,3.356
		c0,0-0.002,0.001-0.002,0.002l-15.004,8.655C101.758,163.378,101.329,163.493,100.891,163.492z"/>
	<path fill="#4DB7CD" d="M116.02,163.271c-0.396,0-0.806-0.096-1.181-0.299l-15.26-8.209c-1.204-0.648-1.65-2.141-0.997-3.332
		c0-0.002,0.001-0.002,0.001-0.004c0.655-1.189,2.158-1.632,3.362-0.988l15.262,8.211c1.204,0.649,1.646,2.146,0.99,3.34
		C117.764,162.779,116.93,163.271,116.02,163.271z"/>
	<path fill="#4DB7CD" d="M108.391,167.738h-0.004c-1.369,0-2.479-1.158-2.479-2.516l0.011-16.914c0-1.354,1.107-2.451,2.475-2.451
		c0.002,0,0.004,0,0.006,0h0.002c1.369,0,2.479,1.07,2.479,2.424l-0.011,16.959C110.869,166.602,109.758,167.738,108.391,167.738z"
		/>
</g>
</svg>
