<?xml version="1.0" encoding="utf-8"?>
<!-- Generator: Adobe Illustrator 16.0.0, SVG Export Plug-In . SVG Version: 6.00 Build 0)  -->
<!DOCTYPE svg PUBLIC "-//W3C//DTD SVG 1.1//EN" "http://www.w3.org/Graphics/SVG/1.1/DTD/svg11.dtd">
<svg version="1.1" id="图层_1" xmlns="http://www.w3.org/2000/svg" xmlns:xlink="http://www.w3.org/1999/xlink" x="0px" y="0px"
	 width="200px" height="200px" viewBox="0 0 200 200" enable-background="new 0 0 200 200" xml:space="preserve">
<path fill="#4DB7CD" d="M135.664,161.347"/>
<g>
	<path fill-rule="evenodd" clip-rule="evenodd" fill="#4DB7CD" d="M52.677,141.461L35.087,159.05c-1.675,1.675-1.675,4.188,0,5.862
		c1.675,1.676,4.188,1.676,5.863,0l17.589-17.588c1.675-1.676,1.675-4.188,0-5.863C56.864,139.785,54.352,139.785,52.677,141.461
		L52.677,141.461z M41.369,100c0-2.513-1.675-4.188-4.188-4.188H12.054c-2.513,0-4.188,1.675-4.188,4.188
		c0,2.513,1.675,4.188,4.188,4.188h25.127C39.694,104.188,41.369,102.514,41.369,100L41.369,100z M147.322,58.541l17.59-17.589
		c1.674-1.675,1.674-4.188,0-5.863c-1.676-1.675-4.188-1.675-5.863,0l-17.59,17.589c-1.675,1.675-1.675,4.188,0,5.863
		C143.135,60.216,145.647,60.216,147.322,58.541L147.322,58.541z M100,41.37c2.512,0,4.188-1.675,4.188-4.188V12.055
		c0-2.513-1.676-4.188-4.188-4.188c-2.513,0-4.188,1.675-4.188,4.188v25.127C95.812,39.695,97.487,41.37,100,41.37L100,41.37z
		 M52.677,58.541c1.675,1.675,4.188,1.675,5.863,0s1.675-4.188,0-5.863L40.95,34.669c-1.675-1.675-4.188-1.675-5.863,0
		c-1.675,1.675-1.675,4.188,0,5.863L52.677,58.541L52.677,58.541z M187.945,95.813h-25.127c-2.514,0-4.188,1.675-4.188,4.188
		c0,2.513,1.675,4.188,4.188,4.188h25.127c2.513,0,4.188-1.675,4.188-4.188C192.133,97.488,190.458,95.813,187.945,95.813
		L187.945,95.813z M147.322,141.461c-1.675-1.676-4.188-1.676-5.863,0c-1.675,1.675-1.675,4.188,0,5.863l17.59,17.588
		c1.675,1.676,4.188,1.676,5.863,0c1.674-1.675,1.674-4.188,0-5.862L147.322,141.461L147.322,141.461z M100,49.746
		c-27.64,0-50.254,22.614-50.254,50.254S72.359,150.256,100,150.256s50.254-22.615,50.254-50.255S127.64,49.746,100,49.746
		L100,49.746z M100,141.879c-23.033,0-41.879-18.846-41.879-41.878c0-23.033,18.846-41.879,41.879-41.879
		c23.034,0,41.879,18.846,41.879,41.879C141.879,123.033,123.033,141.879,100,141.879L100,141.879z M100,158.631
		c-2.513,0-4.188,1.675-4.188,4.188v25.127c0,2.514,1.675,4.188,4.188,4.188c2.512,0,4.188-1.675,4.188-4.188v-25.127
		C104.188,160.306,102.512,158.631,100,158.631L100,158.631z"/>
</g>
</svg>
