<?xml version="1.0" encoding="utf-8"?>
<!-- Generator: Adobe Illustrator 16.0.0, SVG Export Plug-In . SVG Version: 6.00 Build 0)  -->
<!DOCTYPE svg PUBLIC "-//W3C//DTD SVG 1.1//EN" "http://www.w3.org/Graphics/SVG/1.1/DTD/svg11.dtd">
<svg version="1.1" id="图层_1" xmlns="http://www.w3.org/2000/svg" xmlns:xlink="http://www.w3.org/1999/xlink" x="0px" y="0px"
	 width="200px" height="200px" viewBox="0 0 200 200" enable-background="new 0 0 200 200" xml:space="preserve">
<g>
	<g>
		<path fill="#4DB7CD" d="M74.909,46.622h8.364v20.683c0,2.482,1.672,4.136,4.181,4.136h25.091c2.51,0,4.182-1.654,4.182-4.136
			V46.622h8.363c2.51,0,4.184-1.654,4.184-4.136c0-1.241-0.42-2.069-1.256-2.895l-25.091-24.819
			c-0.836-0.828-1.673-1.241-2.927-1.241c-1.255,0-2.092,0.414-2.927,1.241l-25.091,24.82c-0.837,0.826-1.255,1.654-1.255,2.895
			C70.727,44.968,72.4,46.622,74.909,46.622z"/>
		<path fill="#FFFFFF" d="M100,21.474l17.063,16.877h-2.511c-2.509,0-4.182,1.654-4.182,4.137v22.668H89.628V42.486
			c0-2.482-1.673-4.137-4.182-4.137h-2.509L100,21.474z"/>
	</g>
	<g>
		<path fill="#4DB7CD" d="M100,117.348c2.509,0,4.182-1.655,4.182-4.137V88.393c0-2.482-1.673-4.137-4.182-4.137
			s-4.182,1.655-4.182,4.137v24.818C95.818,115.692,97.491,117.348,100,117.348z"/>
		<path fill="#4DB7CD" d="M147.255,134.308l17.563-17.372c1.673-1.657,1.673-4.138,0-5.791c-1.674-1.654-4.184-1.654-5.854,0
			L141.4,128.516c-1.674,1.656-1.674,4.137,0,5.79C143.072,135.96,145.581,135.962,147.255,134.308z"/>
		<path fill="#4DB7CD" d="M187.818,175.257h-37.637c0-27.3-22.582-49.637-50.183-49.637c-27.6,0-50.182,22.337-50.182,49.637H12.182
			c-2.509,0-4.182,1.654-4.182,4.137s1.673,4.138,4.182,4.138h175.636c2.51,0,4.183-1.655,4.183-4.138
			S190.327,175.257,187.818,175.257z"/>
		<path fill="#FFFFFF" d="M58.182,175.257c0-22.75,18.818-41.364,41.818-41.364c22.999,0,41.816,18.614,41.816,41.364H58.182z"/>
		<path fill="#4DB7CD" d="M52.746,134.308c1.673,1.654,4.182,1.654,5.854,0c1.672-1.655,1.673-4.138,0-5.791l-17.564-17.788
			c-1.673-1.654-4.182-1.654-5.854,0c-1.673,1.656-1.673,4.139,0,5.791L52.746,134.308z"/>
	</g>
</g>
</svg>
